<svg width="156" height="40" fill="none" xmlns="http://www.w3.org/2000/svg"><path d="M4.623 5.222c.949 0 1.423-.383 1.423-1.149s-.474-1.149-1.423-1.149c-.79 0-1.185.383-1.185 1.15 0 .765.395 1.148 1.185 1.148Zm17.071 9.713c1.344 0 2.529.452 3.556 1.357 1.028.906 1.541 1.985 1.541 3.238 0 1.288-.513 2.385-1.54 3.29-.988.87-2.213 1.305-3.675 1.305h-6.64v8.46c0 1.706-.71 3.237-2.133 4.595-1.383 1.323-3.2 1.984-5.453 1.984-1.976 0-3.695-.661-5.157-1.984C.731 35.857 0 34.29 0 32.48V6.58c0-1.88.731-3.447 2.193-4.7C3.655.627 5.413 0 7.468 0h16.004c1.897 0 3.517.574 4.86 1.723 1.344 1.15 2.016 2.559 2.016 4.23 0 1.671-.672 3.098-2.015 4.282-1.344 1.184-2.964 1.775-4.86 1.775h-8.536v2.925h6.757Zm-17.9-9.086c-.277 0-.554.121-.83.365-.237.209-.356.505-.356.888v25.483c0 .8.296 1.601.89 2.402.592.766 1.481 1.323 2.666 1.671l.238.104c.158 0 .395-.087.71-.26.356-.21.554-.401.594-.575v-.313c0-.244-.08-.47-.238-.68-.158-.243-.355-.365-.592-.365-.395-.07-.79-.278-1.186-.626-.395-.383-.592-.836-.592-1.358V7.102c0-.836-.435-1.253-1.305-1.253Zm22.879 1.566c-.237-.209-.593-.313-1.067-.313-.158 0-.395.07-.711.209-.395.348-.87.522-1.423.522h-8.535c-.87 0-1.304.383-1.304 1.149s.435 1.149 1.304 1.149h8.535c.553 0 1.146-.105 1.778-.314.633-.243 1.146-.557 1.541-.94a.667.667 0 0 0 .238-.522c0-.418-.119-.731-.356-.94Zm-2.964 12.742c-.158-.279-.513-.418-1.067-.418-.355.035-.592.104-.71.209-.08.07-.396.104-.95.104h-5.808c-.87 0-1.304.383-1.304 1.149 0 .836.435 1.253 1.304 1.253h5.809c.671 0 1.165-.035 1.482-.104.355-.07.691-.244 1.007-.522.316-.279.474-.592.474-.94l-.237-.731ZM39.222 12.742a.767.767 0 0 0-.593.26c-.158.175-.237.401-.237.68 0 .487.277.73.83.73.553 0 .83-.243.83-.73 0-.627-.277-.94-.83-.94Zm7.942-5.431c3.913 0 7.252 1.601 10.018 4.804 2.805 3.168 4.208 6.997 4.208 11.488s-1.403 8.355-4.208 11.593C54.415 38.399 51.077 40 47.164 40c-3.912 0-7.27-1.601-10.076-4.804-2.766-3.238-4.15-7.102-4.15-11.593 0-4.49 1.384-8.32 4.15-11.488 2.806-3.203 6.164-4.804 10.076-4.804Zm0 22.454c1.423 0 2.668-.592 3.735-1.775 1.067-1.219 1.6-2.681 1.6-4.387 0-1.67-.533-3.098-1.6-4.282-1.067-1.184-2.312-1.775-3.735-1.775-1.422 0-2.667.591-3.734 1.775-1.067 1.184-1.6 2.611-1.6 4.282 0 1.706.514 3.168 1.54 4.387 1.068 1.183 2.332 1.775 3.794 1.775Zm6.402-3.029-.119.418c0 .279.158.557.475.836l.355.104c.474 0 .79-.209.949-.627.474-1.148.71-2.436.71-3.864 0-2.646-.849-4.926-2.548-6.84-1.699-1.915-3.774-2.873-6.224-2.873-.869 0-1.58.07-2.133.21-.554.104-1.107.347-1.66.73-.395.105-.593.383-.593.836l.119.418c.197.348.474.522.83.522l.474-.21c.79-.487 1.818-.73 3.082-.73 1.897 0 3.517.783 4.86 2.35 1.344 1.531 2.016 3.394 2.016 5.587a8.801 8.801 0 0 1-.593 3.133Zm-1.304 8.042a7.865 7.865 0 0 1-2.43 1.097c-.91.243-1.798.365-2.668.365-3.042 0-5.65-1.218-7.824-3.655-2.134-2.472-3.2-5.466-3.2-8.982 0-2.61.592-4.909 1.778-6.893.04-.035.06-.087.06-.157.039-.104.058-.226.058-.365 0-.348-.059-.557-.178-.627a.358.358 0 0 0-.296-.156.926.926 0 0 0-.355-.053c-.396 0-.593.105-.593.314a18.938 18.938 0 0 0-1.6 3.864 15.622 15.622 0 0 0-.534 4.073c0 3.969 1.245 7.38 3.734 10.235 2.49 2.855 5.473 4.282 8.95 4.282 2.095 0 4.11-.627 6.046-1.88.237-.209.356-.418.356-.626l-.119-.523c-.158-.278-.434-.417-.83-.417l-.355.104ZM70.769 12.742a.767.767 0 0 0-.593.26c-.158.175-.237.401-.237.68 0 .487.276.73.83.73.553 0 .83-.243.83-.73 0-.627-.277-.94-.83-.94ZM78.71 7.31c3.912 0 7.251 1.601 10.017 4.804 2.806 3.168 4.209 6.997 4.209 11.488s-1.403 8.355-4.209 11.593C85.962 38.399 82.623 40 78.712 40c-3.912 0-7.27-1.601-10.076-4.804-2.766-3.238-4.15-7.102-4.15-11.593 0-4.49 1.384-8.32 4.15-11.488C71.44 8.912 74.799 7.31 78.71 7.31Zm0 22.454c1.423 0 2.668-.592 3.734-1.775 1.067-1.219 1.6-2.681 1.6-4.387 0-1.67-.533-3.098-1.6-4.282-1.066-1.184-2.311-1.775-3.734-1.775-1.422 0-2.667.591-3.734 1.775-1.067 1.184-1.6 2.611-1.6 4.282 0 1.706.513 3.168 1.54 4.387 1.068 1.183 2.332 1.775 3.794 1.775Zm6.402-3.029-.119.418c0 .279.158.557.474.836l.356.104c.474 0 .79-.209.948-.627.475-1.148.712-2.436.712-3.864 0-2.646-.85-4.926-2.549-6.84-1.7-1.915-3.774-2.873-6.224-2.873-.87 0-1.58.07-2.134.21-.553.104-1.106.347-1.66.73-.394.105-.592.383-.592.836l.119.418c.197.348.474.522.83.522l.474-.21c.79-.487 1.817-.73 3.082-.73 1.897 0 3.517.783 4.86 2.35 1.344 1.531 2.016 3.394 2.016 5.587a8.799 8.799 0 0 1-.593 3.133Zm-1.304 8.042a7.866 7.866 0 0 1-2.43 1.097c-.91.243-1.798.365-2.668.365-3.042 0-5.65-1.218-7.824-3.655-2.134-2.472-3.2-5.466-3.2-8.982 0-2.61.592-4.909 1.778-6.893.04-.035.059-.087.059-.157.04-.104.06-.226.06-.365 0-.348-.06-.557-.179-.627a.359.359 0 0 0-.296-.156.925.925 0 0 0-.356-.053c-.395 0-.592.105-.592.314a18.943 18.943 0 0 0-1.6 3.864 15.622 15.622 0 0 0-.534 4.073c0 3.969 1.245 7.38 3.734 10.235 2.49 2.855 5.473 4.282 8.95 4.282 2.095 0 4.11-.627 6.046-1.88.237-.209.356-.418.356-.626l-.119-.523c-.158-.278-.434-.417-.83-.417l-.355.104ZM99.47 12.115c.633 0 .949-.313.949-.94s-.316-.94-.949-.94c-.71 0-1.067.313-1.067.94s.356.94 1.067.94Zm19.798 15.039a9.98 9.98 0 0 0 .592-1.88 7.261 7.261 0 0 0 .237-1.88c0-2.68-1.106-4.96-3.319-6.84-2.173-1.915-4.781-2.872-7.824-2.872h-1.541c-.711 0-1.067.278-1.067.835 0 .627.356.94 1.067.94h1.541c2.49 0 4.623.783 6.402 2.35 1.817 1.532 2.726 3.394 2.726 5.587 0 1.045-.237 2.089-.711 3.133l-.119.418c0 .348.237.592.712.731l.355.105c.474 0 .791-.21.949-.627Zm-10.314 12.01h-8.891c-1.146 0-2.134-.348-2.964-1.044-.79-.731-1.185-1.601-1.185-2.61V11.383c0-.94.395-1.776 1.185-2.507.83-.766 1.818-1.149 2.964-1.149h8.891c4.9 0 9.108 1.532 12.625 4.596 3.517 3.063 5.276 6.754 5.276 11.07 0 4.317-1.759 8.025-5.276 11.123-3.517 3.098-7.725 4.647-12.625 4.647Zm-1.067-9.608.593.105c2.015 0 3.714-.592 5.097-1.776 1.423-1.218 2.134-2.715 2.134-4.49 0-1.672-.711-3.082-2.134-4.23-1.422-1.15-3.082-1.724-4.979-1.724h-.711v12.115Zm6.876 4.804c-1.739.766-3.675 1.15-5.809 1.15h-3.438c-.632 0-.948.278-.948.835 0 .626.316.94.948.94h3.438c2.45 0 4.702-.453 6.757-1.358.316-.105.474-.348.474-.731v-.522c-.158-.279-.474-.418-.948-.418l-.474.104Zm-14.7-20.678c0-.627-.316-.94-.948-.94-.712 0-1.067.313-1.067.94v20.992c0 .557.355.835 1.067.835.632 0 .948-.278.948-.835V13.682ZM134.187 15.666h5.691c.711 0 1.067-.314 1.067-.94 0-.488-.356-.8-1.067-.94h-5.691c-.671 0-1.067-.192-1.185-.575-.119-.383-.435-.574-.948-.574h-.356c-.474.14-.711.453-.711.94l.118.313c.237.488.632.905 1.186 1.254.553.348 1.185.522 1.896.522Zm4.15 19.948c-.633 0-.949.278-.949.835 0 .557.316.836.949.836h12.091c1.067 0 1.897-.314 2.49-.94l.237-.523c-.119-.383-.217-.626-.296-.73-.08-.14-.297-.21-.652-.21-.277 0-.475.105-.593.314-.474.278-.87.418-1.186.418h-12.091Zm-5.691-23.708c.712 0 1.067-.313 1.067-.94 0-.557-.355-.835-1.067-.835-.632 0-.948.313-.948.94 0 .556.316.835.948.835Zm17.782 27.258h-15.766c-1.7 0-3.142-.522-4.327-1.566-1.146-1.08-1.719-2.298-1.719-3.655 0-.453.059-.923.178-1.41.158-.523.375-.958.652-1.306l9.839-13.681h-5.098c-1.501 0-2.805-.488-3.912-1.462-1.106-.975-1.659-2.124-1.659-3.447 0-1.358.533-2.507 1.6-3.446 1.107-.975 2.43-1.463 3.971-1.463h15.293c1.778 0 3.22.54 4.327 1.62 1.146 1.044 1.719 2.28 1.719 3.707 0 1.044-.316 2.019-.949 2.924l-9.72 13.473h5.69c1.501 0 2.786.452 3.853 1.357 1.067.905 1.6 2.054 1.6 3.447 0 1.358-.553 2.524-1.66 3.499-1.067.94-2.371 1.41-3.912 1.41Zm-19.086-3.446c.316.278.593.418.83.418l.474-.21c.316 0 .474-.208.474-.626-.039-.313-.079-.487-.118-.522-.237-.313-.356-.627-.356-.94 0-.418.119-.731.356-.94l9.721-13.577c.395-.452.593-1.01.593-1.67 0-.523-.099-.976-.297-1.359-.158-.417-.454-.626-.889-.626h-.474c-.316.139-.474.418-.474.835l.118.418.119.627c0 .417-.079.696-.237.835l-9.84 13.577c-.276.418-.474.766-.592 1.045a2.707 2.707 0 0 0-.119.835c0 .348.079.696.237 1.044.158.314.316.592.474.836Z" fill="#04B90B"/></svg>